<svg width="24" height="24" fill="#FCFCFC" xmlns="http://www.w3.org/2000/svg"><g clip-path="url(#a)"><mask id="b" style="mask-type:luminance" maskUnits="userSpaceOnUse" x="0" y="0" width="24" height="24"><path d="M24 0H0v24h24V0Z" fill="#FCFCFC"/></mask><g mask="url(#b)"><path fill-rule="evenodd" clip-rule="evenodd" d="M16.284 0c.404 3.406 2.344 5.436 5.716 5.652v3.83c-1.954.188-3.666-.439-5.657-1.62v7.165c0 9.1-10.124 11.945-14.194 5.422C-.466 16.25 1.135 8.885 9.525 8.589v4.04c-.639.101-1.322.26-1.947.468-1.866.62-2.924 1.779-2.63 3.824.566 3.916 7.898 5.076 7.288-2.578V.007h4.048V0Z" fill="#FCFCFC"/></g></g><defs><clipPath id="a"><path fill="#FCFCFC" d="M0 0h24v24H0z"/></clipPath></defs></svg>