<svg width="140" height="22" viewBox="0 0 140 22" fill="none" xmlns="http://www.w3.org/2000/svg">
<path d="M12 0L14.6942 8.2918H23.4127L16.3593 13.4164L19.0534 21.7082L12 16.5836L4.9466 21.7082L7.64076 13.4164L0.587341 8.2918H9.30585L12 0Z" fill="#FAC848"/>
<path d="M36 0L38.6942 8.2918H47.4127L40.3593 13.4164L43.0534 21.7082L36 16.5836L28.9466 21.7082L31.6408 13.4164L24.5873 8.2918H33.3059L36 0Z" fill="#FAC848"/>
<path d="M65 0L67.6942 8.2918H76.4127L69.3593 13.4164L72.0534 21.7082L65 16.5836L57.9466 21.7082L60.6408 13.4164L53.5873 8.2918H62.3059L65 0Z" fill="#FAC848"/>
<path d="M94 0L96.6942 8.2918H105.413L98.3593 13.4164L101.053 21.7082L94 16.5836L86.9466 21.7082L89.6408 13.4164L82.5873 8.2918H91.3058L94 0Z" fill="#FAC848"/>
<path d="M128 0L130.694 8.2918H139.413L132.359 13.4164L135.053 21.7082L128 16.5836L120.947 21.7082L123.641 13.4164L116.587 8.2918H125.306L128 0Z" fill="#FAC848"/>
</svg>
